<svg xmlns="http://www.w3.org/2000/svg" viewBox="0 0 1920 1080">
  <defs>
    <linearGradient id="skyGradient" x1="0%" y1="0%" x2="0%" y2="100%">
      <stop offset="0%" style="stop-color:#0a0a0a;stop-opacity:1" />
      <stop offset="30%" style="stop-color:#1a1a2e;stop-opacity:1" />
      <stop offset="70%" style="stop-color:#16213e;stop-opacity:1" />
      <stop offset="100%" style="stop-color:#0f3460;stop-opacity:1" />
    </linearGradient>
    <linearGradient id="buildingGradient" x1="0%" y1="0%" x2="0%" y2="100%">
      <stop offset="0%" style="stop-color:#2c3e50;stop-opacity:1" />
      <stop offset="100%" style="stop-color:#1a1a1a;stop-opacity:1" />
    </linearGradient>
  </defs>
  
  <!-- Sky background -->
  <rect width="1920" height="1080" fill="url(#skyGradient)"/>
  
  <!-- City skyline -->
  <polygon points="0,800 200,600 300,650 400,500 500,550 600,400 700,450 800,350 900,400 1000,300 1100,350 1200,250 1300,300 1400,200 1500,250 1600,150 1700,200 1800,100 1920,150 1920,1080 0,1080" fill="url(#buildingGradient)"/>
  
  <!-- Building details -->
  <rect x="200" y="600" width="100" height="200" fill="#34495e" opacity="0.8"/>
  <rect x="400" y="500" width="100" height="300" fill="#34495e" opacity="0.8"/>
  <rect x="600" y="400" width="100" height="400" fill="#34495e" opacity="0.8"/>
  <rect x="800" y="350" width="100" height="450" fill="#34495e" opacity="0.8"/>
  <rect x="1000" y="300" width="100" height="500" fill="#34495e" opacity="0.8"/>
  <rect x="1200" y="250" width="100" height="550" fill="#34495e" opacity="0.8"/>
  <rect x="1400" y="200" width="100" height="600" fill="#34495e" opacity="0.8"/>
  <rect x="1600" y="150" width="100" height="650" fill="#34495e" opacity="0.8"/>
  
  <!-- Windows -->
  <rect x="220" y="620" width="15" height="15" fill="#ffd700" opacity="0.7"/>
  <rect x="250" y="640" width="15" height="15" fill="#ffd700" opacity="0.7"/>
  <rect x="270" y="620" width="15" height="15" fill="#ffd700" opacity="0.7"/>
  
  <rect x="420" y="520" width="15" height="15" fill="#ffd700" opacity="0.7"/>
  <rect x="450" y="540" width="15" height="15" fill="#ffd700" opacity="0.7"/>
  <rect x="470" y="520" width="15" height="15" fill="#ffd700" opacity="0.7"/>
  
  <rect x="620" y="420" width="15" height="15" fill="#ff6b6b" opacity="0.8"/>
  <rect x="650" y="440" width="15" height="15" fill="#ff6b6b" opacity="0.8"/>
  <rect x="670" y="420" width="15" height="15" fill="#ff6b6b" opacity="0.8"/>
  
  <!-- Crosshair overlay -->
  <g opacity="0.3">
    <line x1="960" y1="520" x2="960" y2="560" stroke="#00ff00" stroke-width="3"/>
    <line x1="940" y1="540" x2="980" y2="540" stroke="#00ff00" stroke-width="3"/>
    <circle cx="960" cy="540" r="20" fill="none" stroke="#00ff00" stroke-width="2"/>
  </g>
  
  <!-- Muzzle flash effect -->
  <g opacity="0.6">
    <polygon points="1400,600 1450,590 1460,600 1450,610" fill="#ffff00"/>
    <polygon points="1450,590 1480,585 1485,595 1475,600" fill="#ff8800"/>
    <circle cx="1430" cy="600" r="5" fill="#ffffff" opacity="0.8"/>
  </g>
  
  <!-- Particle effects -->
  <circle cx="300" cy="400" r="2" fill="#ff6b6b" opacity="0.6"/>
  <circle cx="500" cy="350" r="3" fill="#4ecdc4" opacity="0.7"/>
  <circle cx="800" cy="320" r="2" fill="#ffd700" opacity="0.8"/>
  <circle cx="1200" cy="280" r="3" fill="#ff6b6b" opacity="0.6"/>
  
  <!-- Grid overlay for tactical feel -->
  <defs>
    <pattern id="grid" width="50" height="50" patternUnits="userSpaceOnUse">
      <path d="M 50 0 L 0 0 0 50" fill="none" stroke="#00ff00" stroke-width="0.5" opacity="0.1"/>
    </pattern>
  </defs>
  <rect width="1920" height="1080" fill="url(#grid)"/>
</svg>